<svg xmlns="http://www.w3.org/2000/svg" width="39.718" height="40" viewBox="0 0 39.718 40">
  <g id="_6dd234f80e9a9a26d1b3376c16303574" data-name="6dd234f80e9a9a26d1b3376c16303574" transform="translate(-0.226)">
    <path id="Path_7" data-name="Path 7" d="M39.785,41.156l-3.575-15.7A1.491,1.491,0,0,0,34.753,24.3H29.4v3.469a2.575,2.575,0,1,1-1.275,0V24.3H12.066v3.469a2.569,2.569,0,1,1-1.275,0V24.3H5.41a1.491,1.491,0,0,0-1.456,1.156L.385,41.156a6.386,6.386,0,0,0,1.256,5.419,6.766,6.766,0,0,0,5.331,2.537H33.2a6.776,6.776,0,0,0,5.331-2.538,6.4,6.4,0,0,0,1.25-5.419Z" transform="translate(0 -9.112)"/>
    <path id="Path_8" data-name="Path 8" d="M18.011,13.913v-4.6a8.039,8.039,0,0,1,8.025-8.031,8.045,8.045,0,0,1,8.025,8.025v5.881h1.281V9.313A9.336,9.336,0,0,0,26.036,0a9.324,9.324,0,0,0-9.312,9.313v5.881H18V13.913Zm15.4,7.231A1.284,1.284,0,1,0,34.7,19.856H34.7A1.286,1.286,0,0,0,33.411,21.144Zm-17.331,0a1.284,1.284,0,1,0,1.287-1.288h-.006A1.284,1.284,0,0,0,16.08,21.144Z" transform="translate(-5.945)"/>
  </g>
</svg>
