<svg xmlns="http://www.w3.org/2000/svg" width="334.637" height="134.651" viewBox="0 0 334.637 134.651">
  <g id="neye-primær" transform="translate(-22.003 -85.699)">
    <path id="Path_44" data-name="Path 44" d="M238.47,120.86c-1.22-1.72-2.19-3.07-3.13-4.43q-7-10.065-13.99-20.15c-1.36-1.96-.7-3.34,1.67-3.52,1.31-.1,2.63-.15,3.94-.15,4.6-.01,5-.5,4.06-5.06-.01-.07-.02-.15-.03-.22a1.32,1.32,0,0,0-1.46-1.3c-.51-.01-1.02-.02-1.53-.02H196.44c-.44,0-.88-.02-1.31.01-1.38.11-1.71.37-1.72,1.71-.01,1.09.16,2.18.24,3.27.09,1.18.73,1.63,1.88,1.61,2.81-.07,4.77,1.28,6.36,3.56q10.83,15.54,21.81,30.98a6.543,6.543,0,0,1,1.28,4.06c-.06,4.38.02,8.76-.05,13.14a30.188,30.188,0,0,1-.49,3.89,3.8,3.8,0,0,1-3.21,3.17,12.08,12.08,0,0,1-2.83.16c-1.31.01-2.63-.04-3.94-.04a1.1,1.1,0,0,0-1.24,1.2c-.01,1.68-.02,3.36-.01,5.04a1.217,1.217,0,0,0,1.34,1.37c.51.01,1.02.02,1.53.02h35.94c.44,0,.88.02,1.31-.01,1.51-.1,1.78-.34,1.84-1.83.05-1.31.04-2.63,0-3.94-.05-1.61-.34-1.85-1.99-1.85-1.6,0-3.21.05-4.81-.03a4.529,4.529,0,0,1-4.52-4.64c-.08-4.52.02-9.06-.24-13.57a9.7,9.7,0,0,1,2.4-7.43,25.582,25.582,0,0,0,1.62-2.34c6.21-8.93,12.49-17.81,18.61-26.8a8.237,8.237,0,0,1,7.08-4.05c4.45.02,3.92-.29,3.96-4.43,0-.29,0-.58-.02-.88a1.277,1.277,0,0,0-1.23-1.3,11.381,11.381,0,0,0-1.31-.06H251.71c-.36,0-.73.01-1.09.04a1.307,1.307,0,0,0-1.36,1.4c-.05,1.02-.14,2.04-.17,3.06-.06,1.77.21,2.04,1.95,2.09,1.24.03,2.49-.04,3.72.08a1.873,1.873,0,0,1,1.68,2.81,6.212,6.212,0,0,1-.78,1.31q-7.245,10.305-14.5,20.59c-.75,1.08-1.6,2.08-2.69,3.48m83.03,38.32h31.55c.66,0,1.31-.01,1.97-.01,1.07,0,1.62-.49,1.62-1.59-.01-3.72-.01-7.45-.01-11.17a1.321,1.321,0,0,0-1.47-1.5c-1.46-.02-2.93.04-4.38-.04a2.3,2.3,0,0,0-2.69,1.95,12.739,12.739,0,0,1-.98,2.43,3.945,3.945,0,0,1-3.63,2.4c-.66.02-1.31.04-1.97.03q-11.07-.075-22.13-.15c-2.63-.02-5.26.02-7.89-.01-1.63-.02-1.78-.16-1.78-1.74q-.015-12.045.01-24.09c.01-1.8.26-2.04,2.02-2.05,3.14-.03,6.29.08,9.42-.04a4.891,4.891,0,0,1,5.1,3.32,12.868,12.868,0,0,1,.48,1.22,2.211,2.211,0,0,0,2.25,1.72c1.52.01,3.04-.05,4.57-.1,1.92-.06,2.05-.19,2.06-2.2.02-3.94,0-7.88,0-11.83,0-1.09.04-2.19-.01-3.28-.07-1.65-.27-1.83-1.97-1.88-.88-.03-1.75-.02-2.63,0-3.49.08-3.35-.68-4.75,3.07a4.378,4.378,0,0,1-4.72,3.13c-1.37-.08-2.76.18-4.14.21-1.75.04-3.51.09-5.25-.04-2.33-.18-2.43-.35-2.43-2.65q-.015-8.985,0-17.96c0-.87.1-1.75.18-2.62a1.058,1.058,0,0,1,1.14-1.07c.36-.01.73-.02,1.1-.02q15.33.09,30.67.17c.29,0,.58.01.88.02a2.275,2.275,0,0,1,2.1,1.34,9.514,9.514,0,0,1,.78,1.8,1.987,1.987,0,0,0,2.25,1.62c1.46-.01,2.92.03,4.38-.01,1.59-.05,1.74-.22,1.76-1.8.02-2.48.01-4.96,0-7.45-.01-2.12-.13-2.28-2.21-2.27q-32.1.09-64.19.21c-.22,0-.44.01-.66.01-1.06-.01-1.64.46-1.62,1.58.02.88-.02,1.75.01,2.63.06,1.77.14,1.86,1.96,2.27a2.57,2.57,0,0,1,2.36,2.67c.04.51.02,1.02.02,1.53v50.38a17.039,17.039,0,0,1-.04,1.75,2.692,2.692,0,0,1-1.96,2.39,6.989,6.989,0,0,1-1.29.24,1.171,1.171,0,0,0-1.14,1.33c.03,1.53.07,3.06.09,4.6a1.378,1.378,0,0,0,1.46,1.54c.66.03,1.31.03,1.97.03q15.9-.03,31.78-.02M140.65,116.42a2.739,2.739,0,0,1-.25-.64q.03-10.4.08-20.8c0-.37,0-.73.02-1.09a1.163,1.163,0,0,1,1.21-1.26c.44-.02.88-.01,1.31-.01h29.14c.66,0,1.31.07,1.97.04a3.014,3.014,0,0,1,3.1,2.27c.13.34.24.69.34,1.04a2.045,2.045,0,0,0,2.28,1.6c1.39-.05,2.78.02,4.16-.02,1.63-.05,1.89-.29,1.89-1.96,0-2.55-.06-5.11-.17-7.66-.09-2.11-.21-2.17-2.32-2.21-.29-.01-.58,0-.88,0H120.75c-3.72,0-3.72,0-3.7,3.77.01,2.42.01,2.42,2.32,3.2,1.56.52,1.93,1.02,2.02,2.71.02.44.01.88.01,1.31q0,23.97-.01,47.95c0,1.39-.15,2.77-.14,4.16a2.491,2.491,0,0,1-1.98,2.55c-2.22.77-2.22.75-2.22,3.06v1.53c0,3.21,0,3.23,3.32,3.22q24.54-.09,49.07-.18c4.97-.02,9.93,0,14.9,0,3.07,0,3.07-.01,3.07-2.96v-8.1c0-2.94-.28-3.24-3.2-3.34-.22-.01-.44,0-.66,0-3.67-.02-3.67-.02-5.08,3.33-1.19,2.85-2.28,3.61-5.28,3.6q-15.225-.09-30.44-.21c-2.09-.02-2.26-.15-2.26-2.24q-.03-11.61,0-23.21c0-1.98.08-2.25,2.04-2.29,3.63-.08,7.27.05,10.91.2A3.959,3.959,0,0,1,157,126.6a10.008,10.008,0,0,0,.84,2.01,2.438,2.438,0,0,0,1.42,1.09c1.89.12,3.79.05,5.69.01a1.336,1.336,0,0,0,1.47-1.51q-.105-8-.19-15.98a1.485,1.485,0,0,0-1.61-1.65c-1.17-.06-2.33-.14-3.49-.27-1.85-.21-3.07.38-3.64,2.29a8.419,8.419,0,0,1-1.5,2.63,3.292,3.292,0,0,1-2.63,1.37c-3.5.02-7.01.1-10.51.11a15.506,15.506,0,0,1-2.2-.28M88.94,139.85c-.75-.76-1.21-1.17-1.6-1.63q-5.205-6.21-10.39-12.43-16-19.155-31.99-38.33A4.393,4.393,0,0,0,41.2,85.7c-5.4.09-10.81.03-16.21.03-.29,0-.59-.01-.88.01-1.36.12-1.68.4-1.77,1.72-.07,1.02-.01,2.04-.02,3.06a1.886,1.886,0,0,0,1.74,2.1c1.86.4,2.51,1.3,2.6,3.2.02.36,0,.73,0,1.1q0,23.865-.01,47.74c0,1.09-.04,2.19-.12,3.28-.2,2.74-.21,2.76-2.91,3.54-.68.2-1.28.4-1.38,1.18a19.33,19.33,0,0,0-.02,5.88c.35.19.48.31.61.32q7.77.075,15.54.11c.92.01,1.29-.54,1.3-1.4,0-1.53-.01-3.07.02-4.6.02-1.08-.45-1.63-1.54-1.66a2.6,2.6,0,0,1-2.46-1.87,8.829,8.829,0,0,1-.57-2.95c.06-8.83.19-17.65.27-26.48.03-3.72-.01-7.45.01-11.17,0-.69.11-1.37.2-2.5a14.735,14.735,0,0,1,1.59,1.36q7.23,8.655,14.44,17.32,13.62,16.305,27.23,32.61a3.945,3.945,0,0,0,3.38,1.57c5.84-.07,11.69-.03,17.53-.03.37,0,.73,0,1.1-.03.75-.05,1.29-.42,1.31-1.19.04-2.02.01-4.05.01-5.88-.39-.26-.5-.39-.63-.42-3.49-.82-3.65-1.01-3.65-4.49q0-25.08.01-50.15a12.694,12.694,0,0,1,.16-2.39,2.326,2.326,0,0,1,1.85-1.93c2.3-.56,2.29-.58,2.3-2.96,0-.73.03-1.46-.01-2.19-.09-1.47-.35-1.79-1.87-1.8-4.16-.03-8.33-.07-12.49.04-2.74.08-2.96.44-2.97,3.12,0,.58,0,1.17.01,1.75a1.591,1.591,0,0,0,1.36,1.69c2.7.76,2.94,1.1,2.94,3.76q.015,20.805.01,41.61c-.02.56-.14,1.1-.27,2.14"/>
    <g id="Group_6" data-name="Group 6">
      <path id="Path_45" data-name="Path 45" d="M42.73,201.85c0-6.08,4.18-10.84,10.74-10.84,6.63,0,10.81,4.77,10.81,10.84,0,6.01-4.18,10.81-10.81,10.81C46.91,212.66,42.73,207.86,42.73,201.85Zm18.65,0c0-4.52-3.07-8.15-7.91-8.15-4.77,0-7.84,3.63-7.84,8.15,0,4.49,3.07,8.08,7.84,8.08C58.31,209.93,61.38,206.34,61.38,201.85Z"/>
      <path id="Path_46" data-name="Path 46" d="M73.78,212.18H71.81l-5.84-11.95h3.11l3.25,7.32a4.451,4.451,0,0,1,.38,1.28h.17a4.539,4.539,0,0,1,.41-1.28l3.21-7.32h3.11Z"/>
      <path id="Path_47" data-name="Path 47" d="M91.95,211.1a6.984,6.984,0,0,1-4.52,1.38c-4.14,0-6.8-2.62-6.8-6.25a6.068,6.068,0,0,1,6.32-6.29,5.638,5.638,0,0,1,5.94,6.01c0,.28-.03.83-.03.83H83.4a3.77,3.77,0,0,0,4.11,3.45,5.883,5.883,0,0,0,3.49-1Zm-8.5-6.14h6.67a3.12,3.12,0,0,0-3.21-2.8A3.358,3.358,0,0,0,83.45,204.96Z"/>
      <path id="Path_48" data-name="Path 48" d="M103.03,203.02a2.961,2.961,0,0,0-1.59-.38,2.7,2.7,0,0,0-2.8,2.62v6.91H95.81V200.22h1.86l.35,1.69h.14a3.98,3.98,0,0,1,3.49-1.73,4.039,4.039,0,0,1,2.38.62Z"/>
      <path id="Path_49" data-name="Path 49" d="M106.18,209.1a8.846,8.846,0,0,0,4.28,1.17c1.76,0,2.73-.52,2.73-1.45,0-2.28-7.81-1.07-7.81-5.32,0-2,1.55-3.56,5.15-3.56a11.528,11.528,0,0,1,5.18.97l-.97,2.21a7.025,7.025,0,0,0-3.9-1c-1.62,0-2.66.35-2.66,1.35,0,2.21,7.87.9,7.87,5.32,0,2-1.62,3.66-5.49,3.66-3.7,0-5.39-1.38-5.39-1.38Z"/>
      <path id="Path_50" data-name="Path 50" d="M130.08,200.23l-5.32,5.84,6.08,6.11h-3.76l-5.04-5.28h-.1v5.28h-2.83V189.1h2.83v16.44h.1l4.73-5.32h3.31Z"/>
      <path id="Path_51" data-name="Path 51" d="M144.79,212.18h-1.86l-.48-1.66h-.14c-.31.55-1.48,1.93-4.28,1.93-3.35,0-5.25-2.11-5.25-5.35v-6.87h2.83v6.49c0,1.93,1,3.38,3.04,3.38a3.1,3.1,0,0,0,3.32-2.94v-6.94h2.83v11.96Z"/>
      <path id="Path_52" data-name="Path 52" d="M158.08,201.61v-12.5h2.83v23.07h-1.93l-.41-1.76h-.14s-1.11,2.04-4.52,2.04a6.256,6.256,0,0,1-.1-12.5c3.18,0,4.18,1.66,4.18,1.66h.09Zm-3.62.69a3.9,3.9,0,1,0,3.8,3.9A3.676,3.676,0,0,0,154.46,202.3Z"/>
      <path id="Path_53" data-name="Path 53" d="M170.41,215.97a3.514,3.514,0,0,1,2.21-3.35v-.17a2.793,2.793,0,0,1-2.04-2.66,2.919,2.919,0,0,1,1.93-2.73,4.072,4.072,0,0,1-.83-2.56c0-2.62,2.11-4.52,5.01-4.52.97,0,6.32.28,6.32.28v2h-2.07v.17s.76.48.76,2.21c0,2.24-1.93,4.25-5.01,4.25a5.92,5.92,0,0,1-2.66-.59c-.69.31-.97.69-.97,1.21,0,.9.76,1.48,3.87,1.48,4.56,0,6.56,1.76,6.56,4.56,0,2.73-2.28,4.8-6.56,4.8C172.62,220.36,170.41,218.5,170.41,215.97Zm2.7-.24c0,1.35,1.21,2.49,3.83,2.49s3.8-1.1,3.8-2.49c0-1.35-1.17-2.49-3.8-2.49C174.35,213.25,173.11,214.42,173.11,215.73Zm.93-11.26a2.68,2.68,0,1,0,2.66-2.35A2.362,2.362,0,0,0,174.04,204.47Z"/>
      <path id="Path_54" data-name="Path 54" d="M191.38,212.45a7.088,7.088,0,0,1-4.11-1.21l-1.31,1.31-1.04-1.04,1.28-1.28a5.971,5.971,0,0,1-1.38-3.97,6.237,6.237,0,0,1,6.56-6.32,7.035,7.035,0,0,1,3.9,1.14l1.45-1.45,1.04,1.04-1.38,1.35a6.224,6.224,0,0,1,1.59,4.25C197.97,210.07,195,212.45,191.38,212.45Zm-3.28-4.04,5.49-5.49a3.824,3.824,0,0,0-6.01,3.32A4.177,4.177,0,0,0,188.1,208.41Zm7.11-2.18a4.418,4.418,0,0,0-.69-2.38l-5.53,5.56a3.785,3.785,0,0,0,2.38.76A3.722,3.722,0,0,0,195.21,206.23Z"/>
      <path id="Path_55" data-name="Path 55" d="M208.23,203.02a2.961,2.961,0,0,0-1.59-.38,2.7,2.7,0,0,0-2.8,2.62v6.91h-2.83V200.22h1.86l.35,1.69h.14a3.98,3.98,0,0,1,3.49-1.73,4.039,4.039,0,0,1,2.38.62Z"/>
      <path id="Path_56" data-name="Path 56" d="M227.92,211.1a6.984,6.984,0,0,1-4.52,1.38c-4.14,0-6.8-2.62-6.8-6.25a6.068,6.068,0,0,1,6.32-6.29,5.638,5.638,0,0,1,5.94,6.01c0,.28-.03.83-.03.83h-9.46a3.77,3.77,0,0,0,4.11,3.45,5.883,5.883,0,0,0,3.49-1Zm-8.5-6.14h6.67a3.12,3.12,0,0,0-3.21-2.8A3.365,3.365,0,0,0,219.42,204.96Z"/>
      <path id="Path_57" data-name="Path 57" d="M234.62,212.18h-2.83V200.23h1.86l.35,1.69h.14a4.88,4.88,0,0,1,4.39-1.97c3.35,0,5.32,2.11,5.32,5.35v6.87h-2.8v-6.49a3.216,3.216,0,0,0-6.42-.38v6.88Z"/>
      <path id="Path_58" data-name="Path 58" d="M258.28,202.44v9.74h-2.8v-9.74h-2.76v-2.21h2.76v-5.08c0-4.08,1.97-5.97,5.18-5.97a5.707,5.707,0,0,1,2.69.62l-.73,2.42a4.245,4.245,0,0,0-1.59-.41c-1.86,0-2.76,1.04-2.76,3.35v5.08h4.21v2.21h-4.2Z"/>
      <path id="Path_59" data-name="Path 59" d="M270.54,212.45c-3.63,0-6.56-2.38-6.56-6.18a6.585,6.585,0,0,1,13.16,0C277.13,210.07,274.16,212.45,270.54,212.45Zm3.83-6.22a3.82,3.82,0,1,0-7.63,0,3.817,3.817,0,1,0,7.63,0Z"/>
      <path id="Path_60" data-name="Path 60" d="M287.43,203.02a2.961,2.961,0,0,0-1.59-.38,2.7,2.7,0,0,0-2.8,2.62v6.91h-2.83V200.22h1.86l.35,1.69h.14a3.98,3.98,0,0,1,3.49-1.73,4.039,4.039,0,0,1,2.38.62Z"/>
      <path id="Path_61" data-name="Path 61" d="M290.57,209.1a8.846,8.846,0,0,0,4.28,1.17c1.76,0,2.73-.52,2.73-1.45,0-2.28-7.81-1.07-7.81-5.32,0-2,1.55-3.56,5.15-3.56a11.528,11.528,0,0,1,5.18.97l-.97,2.21a7.025,7.025,0,0,0-3.9-1c-1.62,0-2.66.35-2.66,1.35,0,2.21,7.87.9,7.87,5.32,0,2-1.62,3.66-5.49,3.66-3.7,0-5.39-1.38-5.39-1.38Z"/>
      <path id="Path_62" data-name="Path 62" d="M314.47,200.23l-5.32,5.84,6.08,6.11h-3.76l-5.04-5.28h-.1v5.28H303.5V189.1h2.83v16.44h.1l4.73-5.32h3.31Z"/>
      <path id="Path_63" data-name="Path 63" d="M327.01,211.1a6.984,6.984,0,0,1-4.52,1.38c-4.14,0-6.8-2.62-6.8-6.25a6.068,6.068,0,0,1,6.32-6.29,5.638,5.638,0,0,1,5.94,6.01c0,.28-.03.83-.03.83h-9.46a3.77,3.77,0,0,0,4.11,3.45,5.883,5.883,0,0,0,3.49-1Zm-8.5-6.14h6.67a3.12,3.12,0,0,0-3.21-2.8A3.351,3.351,0,0,0,318.51,204.96Z"/>
      <path id="Path_64" data-name="Path 64" d="M330.91,189.1h2.83v23.07h-2.83Z"/>
    </g>
  </g>
</svg>
