<svg xmlns="http://www.w3.org/2000/svg" width="27.589" height="38.076" viewBox="0 0 27.589 38.076">
  <g id="_3c74292d7c61459ff970240d8c6e00c2" data-name="3c74292d7c61459ff970240d8c6e00c2" transform="translate(0)">
    <path id="Path_14" data-name="Path 14" d="M.211,0H27.8V29.388H.211Z" transform="translate(-0.211)" fill="none" fill-rule="evenodd"/>
    <path id="Path_15" data-name="Path 15" d="M20.2,21.93a8.057,8.057,0,0,1-8.72,1.6A9.554,9.554,0,0,1,6.389,13.49C7.064,9.4,10.572,6.1,14.495,6l.217,0c3.856.04,7.49,3.263,8.2,7.433a9.816,9.816,0,0,1-2.138,7.893l6.957,7.327a.343.343,0,0,1,.121.323.409.409,0,0,1-.679.3ZM14.608,6.867a7.993,7.993,0,0,0-7.386,6.523,8.857,8.857,0,0,0,2.128,7.6,7.3,7.3,0,0,0,8.179,1.734,8.653,8.653,0,0,0,4.6-9.131A7.994,7.994,0,0,0,14.8,6.869h-.2Z" transform="translate(-0.271 8.693)" fill="#707070"/>
  </g>
</svg>
