<svg xmlns="http://www.w3.org/2000/svg" width="44.4" height="44.4" viewBox="0 0 44.4 44.4">
  <defs>
    <style>
      .cls-1 {
        fill: none;
        fill-rule: evenodd;
      }
    </style>
  </defs>
  <g id="_3c74292d7c61459ff970240d8c6e00c2" data-name="3c74292d7c61459ff970240d8c6e00c2" transform="translate(-0.211)">
    <path id="Path_14" data-name="Path 14" class="cls-1" d="M.211,0h44.4V44.4H.211Z" transform="translate(0)"/>
    <path id="Path_15" data-name="Path 15" d="M30.437,31.506A14.857,14.857,0,0,1,15.313,34.06,15.021,15.021,0,0,1,6.477,17.992,14.953,14.953,0,0,1,20.536,6q.188,0,.376,0A14.994,14.994,0,0,1,35.143,17.9a14.867,14.867,0,0,1-3.708,12.638L43.5,42.272c.259.273.214.364.21.516a.718.718,0,0,1-1.177.478Zm-9.7-24.117A13.554,13.554,0,0,0,7.921,17.833,13.441,13.441,0,0,0,11.612,30,13.425,13.425,0,0,0,25.8,32.776a13.6,13.6,0,0,0,7.981-14.62A13.5,13.5,0,0,0,21.073,7.39q-.17,0-.341,0Z" transform="translate(-3.957 -3.919)"/>
  </g>
</svg>
